<svg xmlns="http://www.w3.org/2000/svg" version="1.1" xmlns:xlink="http://www.w3.org/1999/xlink" xmlns:svgjs="http://svgjs.dev/svgjs" width="1000" height="1000" viewBox="0 0 1000 1000"><rect width="1000" height="1000" fill="#000000"></rect><g transform="matrix(0.7,0,0,0.7,149.57575757575756,426.1630830934846)"><svg viewBox="0 0 396 84" data-background-color="#7c4e29" preserveAspectRatio="xMidYMid meet" height="212" width="1000" xmlns="http://www.w3.org/2000/svg" xmlns:xlink="http://www.w3.org/1999/xlink"><g id="tight-bounds" transform="matrix(1,0,0,1,0.2400000000000091,-0.20551873216109584)"><svg viewBox="0 0 395.52 84.41103746432218" height="84.41103746432218" width="395.52"><g><svg viewBox="0 0 641.7958066675913 136.97069650349647" height="84.41103746432218" width="395.52"><g transform="matrix(1,0,0,1,246.27580666759133,18.93010349650349)"><svg viewBox="0 0 395.5199999999999 99.11048951048949" height="99.11048951048949" width="395.5199999999999"><g><svg viewBox="0 0 395.5199999999999 99.11048951048949" height="99.11048951048949" width="395.5199999999999"><g><svg viewBox="0 0 395.5199999999999 99.11048951048949" height="99.11048951048949" width="395.5199999999999"><g transform="matrix(1,0,0,1,0,0)"><svg width="395.5199999999999" viewBox="0.75 -43 171.5800018310547 43" height="99.11048951048949" data-palette-color="#ffffff"><path d="M9.1 0L0.75 0 4.9-42.95 19.45-42.95 23.55 0 15.4 0 14.8-6.95 9.6-6.95 9.1 0ZM11.85-35.65L10.25-13.8 14.15-13.8 12.25-35.65 11.85-35.65ZM33.9 0L26.15 0 26.15-42.95 39.25-42.95 42.85-16.75 46.45-42.95 59.65-42.95 59.65 0 51.8 0 51.8-30.95 46.85 0 39.15 0 33.9-30.95 33.9 0ZM71.34 0L63.05 0 63.05-42.95 71.34-42.95 71.34 0ZM92.24 0L74.79 0 74.79-42.95 83.39-42.95 83.39-7.3 92.24-7.3 92.24 0ZM102.84 0L94.09 0 94.09-7.3 102.84-7.3 102.84 0ZM106.09 0L106.09-42.95 117.94-42.95Q122.54-42.95 124.84-40.4 127.14-37.85 127.19-32.85L127.19-32.85 127.29-12.75Q127.34-6.4 125.09-3.2 122.84 0 117.64 0L117.64 0 106.09 0ZM114.74-7.6L116.24-7.6Q118.59-7.6 118.59-9.9L118.59-9.9 118.59-32.05Q118.59-33.5 118.36-34.23 118.14-34.95 117.54-35.2 116.94-35.45 115.69-35.45L115.69-35.45 114.74-35.45 114.74-7.6ZM148.49 0L130.74 0 130.74-42.95 147.94-42.95 147.94-34.65 139.49-34.65 139.49-26.3 147.59-26.3 147.59-18.2 139.49-18.2 139.49-8.35 148.49-8.35 148.49 0ZM167.03 0L155.28 0 149.98-43 158.18-43 161.33-13.75 164.13-43 172.33-43 167.03 0Z" opacity="1" transform="matrix(1,0,0,1,0,0)" fill="#ffffff" class="undefined-text-0" data-fill-palette-color="primary" id="text-0"></path></svg></g></svg></g></svg></g></svg></g><g><svg viewBox="0 0 222.878198745913 136.97069650349647" height="136.97069650349647" width="222.878198745913"><g><svg xmlns="http://www.w3.org/2000/svg" data-name="Layer 1" viewBox="2.430551767349243 20.791906356811523 95.1390609741211 58.46809387207031" x="0" y="0" height="136.97069650349647" width="222.878198745913" class="icon-icon-0" data-fill-palette-color="accent" id="icon-0"><path d="M62.78 23l32 55.42 1.3-2.26h-64l1.3 2.26L65.37 23a1.5 1.5 0 0 0-2.59-1.51L30.79 77a1.51 1.51 0 0 0 1.3 2.26h64A1.51 1.51 0 0 0 97.37 77l-32-55.42A1.5 1.5 0 0 0 62.78 23Z" fill="#ffffff" data-fill-palette-color="accent"></path><path d="M34.63 23l32 55.42 1.3-2.26h-64l1.3 2.26L37.22 23a1.5 1.5 0 0 0-2.59-1.51L2.63 77a1.51 1.51 0 0 0 1.3 2.26h64A1.51 1.51 0 0 0 69.21 77l-32-55.42A1.5 1.5 0 0 0 34.63 23Z" fill="#ffffff" data-fill-palette-color="accent"></path></svg></g></svg></g></svg></g><defs></defs></svg><rect width="395.52" height="84.41103746432218" fill="none" stroke="none" visibility="hidden"></rect></g></svg></g></svg>